<svg width="23" height="23" viewBox="0 0 23 23" fill="none" xmlns="http://www.w3.org/2000/svg">
<path d="M10.496 22.416C9.06667 22.416 7.73333 22.1173 6.496 21.52C5.28 20.9013 4.21333 20.08 3.296 19.056C2.37867 18.032 1.664 16.8693 1.152 15.568C0.64 14.2667 0.384 12.9227 0.384 11.536C0.384 10.2987 0.586667 9.072 0.992 7.856C1.41867 6.64 2.03733 5.54133 2.848 4.56C3.65867 3.57867 4.65067 2.84267 5.824 2.352C5.84533 1.98933 6.08 1.69067 6.528 1.456C6.976 1.2 7.50933 1.008 8.128 0.879999C8.768 0.752 9.38667 0.666666 9.984 0.623999C10.5813 0.559999 11.0187 0.528 11.296 0.528C13.472 0.528 15.3813 0.944 17.024 1.776C18.6667 2.58667 19.9467 3.78133 20.864 5.36C21.8027 6.91733 22.272 8.816 22.272 11.056C22.272 12.2507 22.1013 13.4347 21.76 14.608C21.4187 15.76 20.896 16.816 20.192 17.776C19.5093 18.736 18.6133 19.5147 17.504 20.112C14.624 21.648 12.288 22.416 10.496 22.416ZM11.2 21.168C10.9227 20.8693 10.784 20.4533 10.784 19.92C10.784 19.4507 10.8907 19.1093 11.104 18.896C11.3387 18.6827 11.6267 18.5227 11.968 18.416C12.3307 18.3093 12.6933 18.2027 13.056 18.096C13.0987 18.0747 13.1627 18.0533 13.248 18.032C13.3547 18.0107 13.4827 17.968 13.632 17.904C13.824 17.8187 14.016 17.776 14.208 17.776C14.912 17.776 15.264 18.0853 15.264 18.704C15.264 18.9173 15.1253 19.2267 14.848 19.632C14.6773 19.888 14.5387 20.1013 14.432 20.272C14.3467 20.4213 14.2827 20.528 14.24 20.592C14.9013 20.3573 15.616 20.0267 16.384 19.6C17.1733 19.152 17.92 18.6293 18.624 18.032C19.3493 17.4347 19.9573 16.784 20.448 16.08C20.96 15.376 21.28 14.6613 21.408 13.936C21.4507 13.6373 21.4827 13.3173 21.504 12.976C21.5253 12.6347 21.536 12.2827 21.536 11.92C21.536 9.82933 20.9067 7.74933 19.648 5.68C19.2213 5.552 18.624 5.104 17.856 4.336C17.1947 3.67467 16.5547 3.344 15.936 3.344C15.3387 3.344 14.624 3.664 13.792 4.304C12.9387 4.944 12.1813 5.264 11.52 5.264C9.89867 5.264 9.01333 4.13333 8.864 1.872C8.8 1.936 8.576 2.064 8.192 2.256C7.82933 2.42667 7.456 2.59733 7.072 2.768C6.688 2.91733 6.432 2.992 6.304 2.992C6.24 2.992 6.144 2.97067 6.016 2.928C5.78133 3.07733 5.49333 3.26933 5.152 3.504C4.832 3.71733 4.45867 3.99467 4.032 4.336C5.39733 5.06133 6.08 6.29867 6.08 8.048C6.08 8.26133 6.03733 8.60267 5.952 9.072C5.888 9.54133 5.81333 10.0107 5.728 10.48C5.664 10.928 5.632 11.248 5.632 11.44C5.632 12.144 5.92 13.232 6.496 14.704C7.072 16.1973 7.36 17.4027 7.36 18.32C7.36 19.088 7.25333 19.7493 7.04 20.304C8.448 20.88 9.83467 21.168 11.2 21.168ZM14.976 16.592C14.8907 16.592 14.6773 16.528 14.336 16.4C13.9947 16.272 13.6107 16.112 13.184 15.92C12.7573 15.728 12.3733 15.5573 12.032 15.408C11.712 15.2373 11.52 15.12 11.456 15.056H11.2C9.856 15.056 8.96 14.736 8.512 14.096C8.10667 13.5413 7.904 12.5707 7.904 11.184C7.904 10.48 8.032 9.75467 8.288 9.008C8.56533 8.26133 8.97067 7.632 9.504 7.12C10.0373 6.58667 10.7093 6.32 11.52 6.32C11.648 6.32 11.8293 6.352 12.064 6.416C12.2987 6.45867 12.512 6.52267 12.704 6.608C12.896 6.672 12.992 6.74667 12.992 6.832C12.992 6.93867 12.3413 7.056 11.04 7.184C10.3147 7.248 9.71733 7.62133 9.248 8.304C8.8 8.96533 8.576 9.66933 8.576 10.416C8.576 11.3973 8.832 12.2613 9.344 13.008C9.856 13.7547 10.656 14.128 11.744 14.128C12.2987 14.128 12.8213 14 13.312 13.744C13.824 13.4667 14.2293 13.104 14.528 12.656C14.848 12.1867 15.008 11.6853 15.008 11.152C15.008 10.4693 14.9333 9.95733 14.784 9.616C14.6347 9.25333 14.3147 8.86933 13.824 8.464C13.5467 8.208 13.408 7.92 13.408 7.6C13.408 7.344 13.536 7.216 13.792 7.216C14.2187 7.216 14.6027 7.42933 14.944 7.856C15.3067 8.28267 15.52 8.73067 15.584 9.2H15.872C15.9147 9.2 16.0533 9.14667 16.288 9.04C16.5227 8.912 16.8 8.79467 17.12 8.688C17.4613 8.56 17.76 8.496 18.016 8.496C18.72 8.496 19.3173 8.73067 19.808 9.2C20.2987 9.648 20.544 10.2133 20.544 10.896V13.296C20.544 13.872 20.4053 14.32 20.128 14.64C19.8507 14.9387 19.4987 15.152 19.072 15.28C18.6453 15.408 18.1867 15.504 17.696 15.568C17.5253 15.5893 17.28 15.6853 16.96 15.856C16.6613 16.0267 16.3307 16.1973 15.968 16.368C15.6267 16.5173 15.296 16.592 14.976 16.592Z" fill="#F6339A"/>
</svg>
